Coordinates
version=1
nRows=11
nColumns=40
inDegrees=yes

Units are S.I. units (second, meters, Newtons, ...)
If the header above contains a line with 'inDegrees', this indicates whether rotational values are in degrees (yes) or radians (no).

endheader
time	pelvis_tilt	pelvis_list	pelvis_rotation	pelvis_tx	pelvis_ty	pelvis_tz	hip_flexion_r	hip_adduction_r	hip_rotation_r	knee_angle_r	knee_angle_r_beta	ankle_angle_r	subtalar_angle_r	mtp_angle_r	hip_flexion_l	hip_adduction_l	hip_rotation_l	knee_angle_l	knee_angle_l_beta	ankle_angle_l	subtalar_angle_l	mtp_angle_l	lumbar_extension	lumbar_bending	lumbar_rotation	arm_flex_r	arm_add_r	arm_rot_r	elbow_flex_r	pro_sup_r	wrist_flex_r	wrist_dev_r	arm_flex_l	arm_add_l	arm_rot_l	elbow_flex_l	pro_sup_l	wrist_flex_l	wrist_dev_l
      1.90000000	     14.94928557	     -0.88774359	      2.28361482	     -0.30641027	      1.00616149	     -1.06882804	     18.47762609	     -1.24478923	      3.74175608	      1.62036444	      0.02828069	     -7.39195652	      0.00000000	      0.00000000	      7.67579711	      0.16663433	     -7.35016546	     46.18316139	      0.80604823	     11.54655252	      0.00000000	      0.00000000	    -24.75726211	     -2.78694397	      1.80232295	     83.48292968	     -3.88733400	     30.40748160	     32.56396086	     86.06739662	      0.00000000	      0.00000000	     89.36162412	     -8.22186005	     54.26307285	     40.10296097	     82.79381219	      0.00000000	      0.00000000
      1.90500000	     14.80480059	     -0.92188817	      2.37174610	     -0.30709264	      1.00503854	     -1.06884420	     18.77646363	     -1.25217772	      3.66235714	      1.67677003	      0.02926516	     -7.43918248	      0.00000000	      0.00000000	      8.06852616	      0.13856653	     -7.20586907	     46.55376938	      0.81251655	     11.68469739	      0.00000000	      0.00000000	    -24.72459569	     -2.73082564	      1.75552769	     83.58797400	     -3.86946371	     30.35532679	     32.48593302	     86.06920708	      0.00000000	      0.00000000	     89.39432999	     -8.15690126	     54.11983447	     39.99287639	     82.63357859	      0.00000000	      0.00000000
      1.91000000	     14.64581137	     -0.94065839	      2.46686991	     -0.30804031	      1.00387127	     -1.06900089	     19.13250252	     -1.28935030	      3.50272588	      1.76998521	      0.03089207	     -7.47434551	      0.00000000	      0.00000000	      8.48749326	      0.16498167	     -7.00229195	     46.88861826	      0.81836077	     11.81086310	      0.00000000	      0.00000000	    -24.71304312	     -2.64716031	      1.72836975	     83.79981288	     -3.82495407	     30.26308791	     32.32597576	     86.17070589	      0.00000000	      0.00000000	     89.44498181	     -8.12964564	     53.87670601	     39.99903227	     82.39854104	      0.00000000	      0.00000000
      1.91500000	     14.60437797	     -0.97980063	      2.51266594	     -0.30880978	      1.00292512	     -1.06897267	     19.29712204	     -1.28525886	      3.45716258	      1.70099769	      0.02968801	     -7.75817328	      0.00000000	      0.00000000	      8.74370828	      0.10572996	     -6.97479278	     47.20438485	      0.82387194	     11.90191228	      0.00000000	      0.00000000	    -24.79516915	     -2.57858329	      1.68331179	     83.99677253	     -3.74467924	     30.67617637	     32.17751398	     84.73955224	      0.00000000	      0.00000000	     89.48166827	     -8.17225578	     53.70763761	     40.11576864	     80.50860121	      0.00000000	      0.00000000
      1.92000000	     14.59607704	     -1.06242813	      2.65626729	     -0.30928528	      1.00188341	     -1.06904580	     19.41129902	     -1.23821600	      3.18192474	      1.78299512	      0.03111914	     -7.39402631	      0.00000000	      0.00000000	      8.95824431	      0.03908345	     -6.76896239	     47.55519368	      0.82999471	     12.19555763	      0.00000000	      0.00000000	    -24.90935688	     -2.42742289	      1.62852718	     84.24636778	     -3.72919291	     30.40302025	     32.01185738	     86.27675757	      0.00000000	      0.00000000	     89.50586783	     -8.11391191	     53.25357358	     40.07909125	     81.70542765	      0.00000000	      0.00000000
      1.92500000	     14.42217721	     -1.02931083	      2.63768144	     -0.31004902	      1.00059988	     -1.06903196	     19.78208153	     -1.30396750	      3.17273594	      1.85837111	      0.03243469	     -7.40006941	      0.00000000	      0.00000000	      9.35054639	      0.09463587	     -6.73745832	     47.86386530	      0.83538204	     12.32122307	      0.00000000	      0.00000000	    -24.85502220	     -2.46446727	      1.66812844	     84.33385502	     -3.74514268	     30.38360357	     32.02475942	     86.15449470	      0.00000000	      0.00000000	     89.53969807	     -8.00918047	     52.86049657	     39.93261962	     81.90584657	      0.00000000	      0.00000000
      1.93000000	     14.26594582	     -1.05277257	      2.72614255	     -0.31080603	      0.99938653	     -1.06920469	     20.11229048	     -1.33806365	      3.05317231	      1.89492747	      0.03307272	     -7.46582959	      0.00000000	      0.00000000	      9.75263012	      0.11215691	     -6.58851144	     48.21258871	      0.84146841	     12.42215298	      0.00000000	      0.00000000	    -24.83542949	     -2.36325692	      1.56907300	     84.70137798	     -3.73255630	     31.04027158	     31.79871183	     85.94344555	      0.00000000	      0.00000000	     89.56755117	     -8.13344275	     52.70951215	     40.16380983	     81.12085835	      0.00000000	      0.00000000
      1.93500000	     14.19700355	     -1.14827307	      2.82125538	     -0.31167938	      0.99835623	     -1.06931708	     20.34013048	     -1.29876843	      2.88583365	      1.94220556	      0.03389788	     -7.49264911	      0.00000000	      0.00000000	     10.04316363	      0.05080179	     -6.42354262	     48.51223128	      0.84669816	     12.59927681	      0.00000000	      0.00000000	    -24.90305252	     -2.20999691	      1.56836619	     84.88687860	     -3.70668469	     30.97668069	     31.66484416	     85.93267101	      0.00000000	      0.00000000	     89.59216358	     -8.01724876	     52.16352530	     40.04648537	     82.92094986	      0.00000000	      0.00000000
      1.94000000	     14.01191079	     -1.20855261	      2.89409949	     -0.31240515	      0.99700350	     -1.06945104	     20.66796869	     -1.31321430	      2.82482361	      1.83572584	      0.03203946	     -7.77786322	      0.00000000	      0.00000000	     10.48230249	      0.03167593	     -6.26641934	     48.89572075	      0.85339132	     12.78074796	      0.00000000	      0.00000000	    -24.83874155	     -2.10381967	      1.59648210	     85.12621723	     -3.74727041	     31.29979425	     31.55703113	     84.73124148	      0.00000000	      0.00000000	     89.62409045	     -7.96060893	     52.04908525	     40.14420377	     80.80722208	      0.00000000	      0.00000000
      1.94500000	     13.95720765	     -1.21880046	      2.98979323	     -0.31314217	      0.99601332	     -1.06953930	     20.89559915	     -1.35008266	      2.62624153	      2.03136362	      0.03545398	     -7.41350614	      0.00000000	      0.00000000	     10.71985729	      0.05781088	     -6.11655758	     49.14288980	      0.85770523	     12.95616365	      0.00000000	      0.00000000	    -24.93389564	     -2.03288630	      1.51863056	     85.35296053	     -3.67968732	     31.01861635	     31.41248452	     86.21498019	      0.00000000	      0.00000000	     89.64149127	     -7.92887405	     51.50574091	     40.11120070	     81.93070303	      0.00000000	      0.00000000
      1.95000000	     13.94125963	     -1.35671994	      3.13313982	     -0.31363719	      0.99493202	     -1.06962765	     21.03348122	     -1.27669671	      2.30259294	      2.01191418	      0.03511453	     -7.39177720	      0.00000000	      0.00000000	     10.95469266	     -0.05999595	     -5.90657855	     49.50084794	      0.86395278	     13.17713755	      0.00000000	      0.00000000	    -25.01912092	     -1.81794572	      1.44792179	     85.53637982	     -3.59096237	     31.04863663	     31.27368895	     86.06819203	      0.00000000	      0.00000000	     89.66396716	     -7.93029143	     51.14344667	     40.13338977	     82.47893355	      0.00000000	      0.00000000
